<?xml version="1.0"?>
<svg xmlns="http://www.w3.org/2000/svg" id="Capa_1" enable-background="new 0 0 511.998 511.998" height="512px" viewBox="0 0 511.998 511.998" width="512px" class=""><g><g><g><g><g><path d="m392.025 449.474c-25.82 41.879-75.329 62.969-123.351 52.27-53.977-12.025-112.67-44.746-163.17-95.247-50.508-50.508-83.228-109.201-95.252-163.18-10.697-48.022 10.391-97.531 52.27-123.351 9.388-5.788 21.523-4.369 29.321 3.43l57.921 57.92c10.865 10.865 8.741 29.026-4.339 37.09l-23.668 14.592c-9.933 6.124-13.977 18.543-9.519 29.327 9.677 23.403 27.162 55.792 58.458 85.902 27.993 26.931 57.17 42.548 79.067 51.581 10.75 4.434 23.13.344 29.233-9.554l14.598-23.677c8.064-13.08 26.225-15.204 37.09-4.339l57.912 57.912c7.799 7.799 9.218 19.933 3.43 29.321z" fill="#b5adb6" data-original="#B5ADB6" class=""/><path d="m290.425 371.725 91.58 91.58c3.634-4.317 6.995-8.926 10.02-13.831l.002-.003c5.788-9.388 4.369-21.523-3.43-29.321l-57.912-57.912c-10.865-10.865-29.026-8.741-37.09 4.339l-3.17 5.141z" fill="#918291" data-original="#918291" class=""/><path d="m140.28 221.579 5.145-3.172c13.08-8.064 15.204-26.225 4.339-37.09l-57.921-57.921c-7.798-7.799-19.933-9.218-29.321-3.43-4.906 3.025-9.515 6.387-13.833 10.021l91.59 91.59z" fill="#918291" data-original="#918291" class=""/><path d="m504.497 166.63c0-88.665-72.515-160.394-161.474-159.114-86.17 1.24-156.239 71.908-156.784 158.085-.305 48.261 20.881 91.575 54.544 120.955 3.553 3.1 3.041 8.759-1.017 11.16l-29.985 17.741c-4.847 2.868-2.813 10.3 2.82 10.299l135.779-.033c86.493-1.608 156.117-72.215 156.117-159.093z" fill="#7acaa6" data-original="#F7E365" class="" style="fill:#F7E365" data-old_color="#7acaa6"/><path d="m343.023 7.517c-4.255.061-8.468.298-12.638.691 80.841 7.569 144.112 75.603 144.112 158.422 0 86.878-69.623 157.485-156.117 159.092l-105.867.026c.031 0 .058.007.088.007l135.779-.033c86.493-1.608 156.117-72.215 156.117-159.092 0-88.665-72.516-160.393-161.474-159.113z" fill="#57be92" data-original="#F3D332" class="" style="fill:#F3D332" data-old_color="#57be92"/><g><circle cx="345.496" cy="265.406" fill="#fff" r="15" data-original="#FFF" class=""/><g><g><path d="m345.366 220.837c-8.284 0-15-6.716-15-15v-47.375c0-8.284 6.716-15 15-15 8.386 0 16.19-3.355 21.976-9.449 5.781-6.089 8.725-14.076 8.288-22.49-.818-15.756-13.834-28.348-29.632-28.667-.207-.004-.414-.006-.62-.006-15.087 0-27.937 11.102-30.023 26.06-.195 1.396-.294 2.825-.294 4.246 0 8.284-6.716 15-15 15s-15-6.716-15-15c0-2.803.195-5.626.581-8.392 4.215-30.204 30.44-52.536 60.961-51.902 31.448.634 57.357 25.718 58.986 57.106.867 16.711-4.989 32.586-16.491 44.701-7.831 8.249-17.857 14.067-28.731 16.878v34.289c-.001 8.285-6.717 15.001-15.001 15.001z" fill="#fff" data-original="#FFF" class=""/></g></g></g></g><path d="m413.079 109.581c-1.832-35.296-30.966-63.502-66.32-64.216-34.363-.699-63.802 24.378-68.545 58.364-.434 3.106-.653 6.278-.653 9.428 0 12.407 10.094 22.5 22.5 22.5s22.5-10.093 22.5-22.5c0-1.077.074-2.156.222-3.21 1.559-11.171 11.272-19.596 22.596-19.596l.469.005c11.886.239 21.678 9.708 22.293 21.557.329 6.339-1.886 12.354-6.237 16.937-4.354 4.587-10.228 7.113-16.536 7.113-12.406 0-22.5 10.093-22.5 22.5v47.375c0 12.407 10.094 22.5 22.5 22.5s22.5-10.093 22.5-22.5v-28.741c10.135-3.568 19.269-9.466 26.671-17.262 12.929-13.621 19.514-31.468 18.54-50.254zm-54.59 54.706c-3.311.855-5.623 3.842-5.623 7.261v34.289c0 4.136-3.364 7.5-7.5 7.5s-7.5-3.364-7.5-7.5v-47.375c0-4.136 3.364-7.5 7.5-7.5 10.463 0 20.199-4.185 27.414-11.785 7.212-7.595 10.884-17.554 10.34-28.043-1.021-19.664-17.261-35.378-36.963-35.776-.26-.005-.521-.008-.779-.008-18.764 0-34.864 13.982-37.451 32.521-.243 1.737-.366 3.515-.366 5.285 0 4.136-3.364 7.5-7.5 7.5s-7.5-3.364-7.5-7.5c0-2.458.171-4.933.509-7.355 3.642-26.094 26.005-45.452 52.27-45.452.369 0 .742.004 1.112.012 27.535.555 50.222 22.516 51.647 49.996.76 14.637-4.368 28.541-14.44 39.148-6.812 7.175-15.515 12.286-25.17 14.782zm-12.992 78.619c-12.406 0-22.5 10.093-22.5 22.5s10.094 22.5 22.5 22.5 22.5-10.093 22.5-22.5-10.094-22.5-22.5-22.5zm0 30c-4.136 0-7.5-3.364-7.5-7.5s3.364-7.5 7.5-7.5 7.5 3.364 7.5 7.5-3.365 7.5-7.5 7.5zm-9.509 84.029c-6.811-6.81-16.2-10.076-25.771-8.956-9.565 1.12-17.951 6.463-23.006 14.662l-14.598 23.677c-4.216 6.838-12.622 9.596-19.989 6.558-28.694-11.836-54.509-28.677-76.727-50.053-24.527-23.596-43.613-51.644-56.728-83.362-3.064-7.413-.321-15.856 6.524-20.077l23.666-14.592c8.199-5.055 13.543-13.44 14.662-23.007 1.12-9.567-2.145-18.96-8.955-25.771l-57.92-57.92c-10.303-10.303-26.16-12.158-38.562-4.511-5.115 3.154-9.922 6.653-14.435 10.428-.152.115-.299.238-.443.366-34.585 29.212-50.8 75.568-40.775 120.572 12.86 57.732 47.404 116.988 97.269 166.852 25.398 25.398 53.21 46.836 82.663 63.719 3.592 2.061 8.177.816 10.236-2.777 2.06-3.594.816-8.177-2.777-10.237-28.302-16.224-55.055-36.852-79.515-61.312-47.875-47.874-80.986-104.521-93.235-159.506-8.304-37.278 3.915-75.612 30.838-101.371l79.857 79.858-10.446 6.441c-13.143 8.104-18.405 24.327-12.513 38.577 13.91 33.644 34.16 63.4 60.188 88.44 23.578 22.685 50.968 40.553 81.407 53.11 14.197 5.856 30.382.578 38.477-12.552l6.447-10.456 79.851 79.851c-25.76 26.925-64.097 39.144-101.373 30.839-17.904-3.989-36.289-10.315-54.645-18.804-3.762-1.739-8.217-.1-9.956 3.659-1.738 3.759-.101 8.217 3.659 9.955 19.326 8.938 38.732 15.609 57.68 19.831 8.863 1.975 17.776 2.932 26.604 2.932 42.066.193 82.665-22.414 104.764-58.589 7.646-12.401 5.792-28.258-4.51-38.561zm-275.999-226.254c2.095-1.509 4.247-2.96 6.47-4.33 6.458-3.984 14.718-3.016 20.081 2.349l57.92 57.92c3.548 3.547 5.247 8.439 4.664 13.421-.582 4.982-3.365 9.349-7.636 11.981l-.098.06zm325.672 314.825c-.007.011-.013.022-.02.033-1.37 2.222-2.821 4.372-4.329 6.467l-81.395-81.395.06-.098c2.633-4.27 7-7.053 11.981-7.636 4.982-.582 9.875 1.117 13.422 4.664l57.912 57.912c5.359 5.358 6.33 13.598 2.369 20.053zm76.675-397.551c-31.432-30.982-72.874-47.955-116.947-47.955-.822 0-1.65.006-2.474.018-82.653 1.188-152.688 63.976-162.908 146.049-.512 4.11 2.405 7.857 6.516 8.369 4.107.513 7.856-2.405 8.369-6.516 9.3-74.687 73.028-131.823 148.239-132.905 40.952-.587 79.539 14.903 108.674 43.622 29.143 28.726 45.191 67.078 45.191 107.993 0 40.001-15.438 77.74-43.473 106.266-27.982 28.473-65.345 44.569-105.216 45.327l-128.524.031 23.803-14.083c3.968-2.349 6.588-6.491 7.01-11.08.422-4.594-1.403-9.149-4.882-12.185-30.604-26.709-48.941-63.649-51.637-104.015-.275-4.133-3.854-7.266-7.983-6.984-4.133.276-7.26 3.85-6.983 7.983 2.945 44.103 22.874 84.481 56.135 113.786l-29.283 17.326c-5.121 3.03-7.506 8.921-5.935 14.661 1.571 5.738 6.623 9.592 12.571 9.592h.004l135.778-.033c.046 0 .092 0 .138-.001 43.846-.814 84.937-18.505 115.703-49.811 30.808-31.348 47.774-72.821 47.774-116.78.001-44.962-17.636-87.108-49.66-118.675z" data-original="#000000" class="active-path" style="fill:#000000"/></g></g></g></g> </svg>
